# xmcd
#
# Track frame offsets:
# 182
# 14317
# 31370
# 51980
# 65022
# 77600
# 90815
# 106925
# 125320
# 140312
# 158407
#
# Disc length: 2312 seconds
#
#
# Revision: 0
# Processed by: cddbd v1.5.2PL0 Copyright (c) Steve Scherf et al.
# Submitted via: Nero 8, 3, 20, 0 
#
DISCID=7b09060b
DTITLE=Sawyer Brown - The Boys Are Back
DYEAR=1989
DGENRE=Country
TTITLE0=Puttin' The Cark Back Into The Night
TTITLE1=Rosie Knows
TTITLE2=I Did It For Love
TTITLE3=The Race Is On
TTITLE4=Hey, Hey
TTITLE5=Good While It Lasted
TTITLE6=Locomotive
TTITLE7=The Heartland
TTITLE8=I'm Gonna Miss You After All
TTITLE9=Gettin' Tough (Good Ol' Boy)
TTITLE10=Passin' Train
EXTD=
EXTT0=Puttin' The Cark Back Into The Night
EXTT1=Rosie Knows
EXTT2=I Did It For Love
EXTT3=The Race Is On
EXTT4=Hey, Hey
EXTT5=Good While It Lasted
EXTT6=Locomotive
EXTT7=The Heartland
EXTT8=I'm Gonna Miss You After All
EXTT9=Gettin' Tough (Good Ol' Boy)
EXTT10=Passin' Train
PLAYORDER=
